<svg version="1.1" id="Layer_1" xmlns="http://www.w3.org/2000/svg" xmlns:xlink="http://www.w3.org/1999/xlink" x="0px" y="0px"
	 width="100%" viewBox="0 380 1024 200" enable-background="new 0 0 1024 1024" xml:space="preserve">
<path fill="#4090f0" opacity="1.000000" stroke="none" 
	d="
M81.003769,406.930237 
	C89.665474,402.575256 97.970413,397.943298 107.896675,397.965393 
	C146.211273,398.050629 184.526230,397.962067 222.840836,398.042664 
	C228.312943,398.054169 233.920929,397.983063 239.227631,399.091492 
	C251.414993,401.637115 261.970642,407.161530 270.120667,417.107483 
	C275.953613,424.225769 281.201782,431.439087 283.828156,440.421661 
	C286.301270,448.879974 289.499420,457.127655 291.929504,465.596863 
	C295.207703,477.021759 297.218719,488.877808 301.303558,499.986237 
	C306.255127,513.451782 306.270020,526.892578 303.057434,540.249023 
	C300.998749,548.808167 295.796021,555.722412 288.366333,561.695374 
	C274.782776,572.615723 259.628265,573.018005 244.499222,569.564331 
	C232.789688,566.891235 222.043732,560.448547 212.957016,551.973389 
	C208.296432,547.626526 203.561798,543.335083 198.583115,539.366760 
	C196.901749,538.026611 194.374847,537.131592 192.219498,537.101624 
	C178.062439,536.904663 163.889145,537.329956 149.748505,536.809204 
	C145.202576,536.641846 141.882065,538.530396 138.988159,540.807861 
	C132.963806,545.549072 128.024475,551.737061 121.791328,556.126404 
	C115.145531,560.806335 107.642097,564.344116 100.295319,567.934937 
	C89.632889,573.146423 78.201042,571.821106 67.270004,569.725403 
	C59.231426,568.184204 52.233612,563.608582 46.413754,557.153381 
	C40.604481,550.709839 37.388859,543.199097 35.246445,535.219116 
	C32.502048,524.996826 34.141075,514.552063 36.202728,504.447601 
	C38.119663,495.052460 41.177876,485.869781 44.075974,476.701813 
	C46.289356,469.699860 49.114605,462.893616 51.517406,455.948334 
	C52.850792,452.094116 53.964035,448.156921 55.023586,444.216034 
	C58.233162,432.278412 64.617012,422.099823 72.714798,412.996826 
	C74.864449,410.580353 78.153168,409.177155 81.003769,406.930237 
M67.467346,447.034668 
	C66.655548,448.855438 65.703621,450.627899 65.056343,452.505402 
	C62.342934,460.375702 59.587276,468.235687 57.100483,476.178802 
	C54.274685,485.204742 51.337948,494.224335 49.146816,503.413025 
	C46.653584,513.868591 45.339581,524.769897 48.358040,535.151611 
	C51.043465,544.387878 56.940231,551.931885 66.874290,554.965088 
	C69.982742,555.914124 73.245865,556.344727 76.388214,557.196899 
	C86.130272,559.838684 95.572281,556.877808 103.294151,552.345215 
	C114.056908,546.027710 123.156494,536.923645 133.253113,529.394592 
	C136.131378,527.248230 139.971390,525.275452 143.417114,525.193787 
	C161.070206,524.775024 178.742676,525.212708 196.399063,524.870300 
	C201.695175,524.767578 205.073135,527.715210 208.654007,530.408386 
	C212.781174,533.512451 216.319748,537.386902 220.328339,540.664429 
	C224.168427,543.804321 228.011383,547.117004 232.345200,549.432617 
	C237.958725,552.432068 243.874146,555.305847 250.008881,556.753967 
	C255.081268,557.951172 260.665466,557.142578 266.014313,556.964233 
	C272.373199,556.752258 278.088989,553.900513 282.364594,549.768005 
	C290.252502,542.143982 293.930145,532.229919 293.906006,521.192383 
	C293.901550,519.158020 292.504730,517.164307 292.043640,515.086792 
	C290.103790,506.345703 288.749146,497.443787 286.283020,488.858490 
	C283.351288,478.652618 278.952637,468.857178 276.214874,458.609955 
	C273.924347,450.036926 271.085266,441.881317 267.086609,433.939209 
	C262.970398,425.763550 255.899567,420.735931 248.776321,416.336639 
	C242.134781,412.234802 233.963577,410.998077 225.913132,410.998718 
	C187.254456,411.001740 148.595688,410.953033 109.937164,411.033997 
	C100.554726,411.053650 91.758041,414.468567 84.867981,420.147095 
	C76.751137,426.836700 70.358360,435.532135 67.467346,447.034668 
z"/>
<path fill="#EEEEEF" opacity="1.000000" stroke="none" 
	d="
M600.964478,461.944946 
	C603.723206,465.140106 606.423096,467.954895 608.466797,470.085510 
	C613.762207,466.676971 619.035645,462.527100 624.950867,459.739044 
	C628.932373,457.862427 633.831177,457.191284 638.301758,457.254059 
	C646.476746,457.368805 653.569641,461.216461 657.328674,468.314484 
	C660.305359,473.935272 662.343811,480.665680 662.604919,486.993896 
	C663.310791,504.099335 662.846619,521.253113 662.846619,538.704468 
	C657.185059,538.704468 651.933472,538.704468 646.289612,538.704468 
	C646.198547,537.631104 646.001160,536.370789 645.998840,535.110107 
	C645.977173,523.278687 646.317200,511.434448 645.856995,499.621002 
	C645.615051,493.412231 644.422424,487.146240 642.871643,481.108307 
	C641.213074,474.650757 627.873718,471.386536 621.860718,475.613220 
	C615.931030,479.781342 612.925171,485.493561 612.931213,492.776459 
	C612.943726,507.930115 612.934998,523.083740 612.934998,538.629150 
	C607.379456,538.629150 601.983032,538.629150 595.991211,538.629150 
	C595.991211,535.699585 595.991028,532.595154 595.991333,529.490784 
	C595.992126,519.825623 595.730652,510.150787 596.088928,500.498901 
	C596.317078,494.351898 595.214478,488.613708 593.319702,482.855042 
	C590.561829,474.472839 579.128601,470.751770 571.752380,475.708374 
	C565.255127,480.074280 562.796509,486.128998 562.824707,493.643005 
	C562.880249,508.459564 562.841064,523.276489 562.841064,538.552612 
	C557.173584,538.552612 551.807373,538.552612 546.200439,538.552612 
	C546.200439,511.989838 546.200439,485.381683 546.200439,458.425110 
	C550.851685,458.425110 555.582947,458.425110 560.955688,458.425110 
	C560.955688,462.429596 560.955688,466.614563 560.955688,472.309784 
	C572.251831,457.247192 584.952576,452.454987 600.964478,461.944946 
z"/>
<path fill="#EEEEEF" opacity="1.000000" stroke="none" 
	d="
M435.879486,480.036682 
	C437.810150,480.035187 439.253357,480.035187 441.022400,480.035187 
	C441.022400,493.986481 441.135895,507.451080 440.878784,520.908630 
	C440.846649,522.591187 439.236053,524.859985 437.707336,525.792969 
	C430.302429,530.312073 423.114319,536.012756 415.003571,538.315308 
	C406.991974,540.589722 397.878693,540.189758 389.412140,539.338257 
	C379.665100,538.357849 370.766449,533.981750 363.799042,526.882446 
	C360.014374,523.026123 357.006836,518.348267 353.986298,513.816040 
	C350.333527,508.335236 348.247192,502.284271 347.892761,495.573914 
	C347.597504,489.982910 345.679291,484.321869 346.241333,478.873566 
	C347.435730,467.295746 351.238098,456.379547 358.604736,447.083557 
	C366.354614,437.303894 376.585175,431.987335 388.676147,428.732635 
	C401.922333,425.166962 413.323517,428.067108 424.411469,434.813416 
	C429.477173,437.895569 434.448395,441.132996 439.521667,444.337433 
	C436.281769,448.513916 433.881073,452.281586 430.752319,455.292816 
	C429.588684,456.412750 425.778503,456.727356 424.785950,455.758667 
	C419.171509,450.279297 412.915680,447.185791 405.024414,445.647583 
	C390.897400,442.893829 381.150238,448.461578 372.831818,458.979218 
	C362.675842,471.820312 363.174835,486.339813 367.359528,500.574951 
	C369.784332,508.823303 376.409851,515.096985 384.483154,519.368530 
	C398.292023,526.674805 410.849518,523.172302 423.085266,515.614441 
	C425.188568,514.315308 426.061310,496.687408 424.059601,495.487518 
	C423.163757,494.950531 421.820770,495.054657 420.679749,495.048798 
	C413.857025,495.013733 407.034027,495.031433 399.794189,495.031433 
	C399.572266,490.131256 399.359375,485.429626 399.115204,480.038208 
	C411.524323,480.038208 423.458191,480.038208 435.879486,480.036682 
z"/>
<path fill="#4090f0" opacity="1.000000" stroke="none" 
	d="
M942.931885,458.822815 
	C951.714417,462.101044 957.877502,468.101044 961.769531,475.961853 
	C964.089172,480.646942 964.662659,486.199402 965.997986,491.367920 
	C966.691101,494.050812 968.367371,496.984039 967.813599,499.393738 
	C965.853638,507.922302 964.439209,516.979004 960.389954,524.534241 
	C953.598877,537.205261 935.248840,543.301880 921.014526,538.898438 
	C915.080811,537.062805 910.635376,532.693726 906.924744,527.712769 
	C906.540161,527.196594 906.092285,526.708374 905.594360,526.305359 
	C905.396729,526.145447 904.982361,526.253174 904.200073,526.218262 
	C904.200073,530.268677 904.200073,534.315186 904.200073,538.675781 
	C898.684082,538.675781 893.627502,538.675781 888.283081,538.675781 
	C888.283081,501.608032 888.283081,464.572906 888.283081,427.268616 
	C894.106445,427.268616 899.826843,427.268616 905.970642,427.268616 
	C905.970642,441.871887 905.970642,456.277985 905.970642,470.280670 
	C910.663635,466.811249 914.913635,462.703613 919.964417,460.233429 
	C924.192993,458.165375 929.319458,457.645050 934.121704,457.147827 
	C936.941162,456.855927 939.904053,457.948792 942.931885,458.822815 
M909.979370,485.574493 
	C908.744629,488.611298 906.767517,491.565582 906.418945,494.700897 
	C905.494812,503.013763 906.445557,510.513489 913.057190,517.327576 
	C918.701294,523.144287 924.863586,523.637207 931.527954,522.814697 
	C935.384949,522.338684 940.119568,520.807922 942.502930,518.057007 
	C950.272095,509.089691 951.713928,494.442993 945.072083,483.916290 
	C940.748474,477.063812 934.586365,474.121582 926.847961,474.052002 
	C919.010193,473.981506 914.066895,478.695709 909.979370,485.574493 
z"/>
<path fill="#ECEDEE" opacity="1.000000" stroke="none" 
	d="
M514.662964,538.630493 
	C512.474854,535.040466 510.619690,531.680359 508.947083,528.650879 
	C505.697479,531.016052 501.491089,534.329529 497.034851,537.263489 
	C489.897217,541.962891 473.206451,540.413635 466.153900,535.700195 
	C455.285278,528.436218 454.720306,517.943848 456.418945,506.952606 
	C457.588776,499.383301 463.530975,495.231506 470.126770,491.905640 
	C476.846008,488.517456 483.988678,488.388580 490.993927,489.172760 
	C496.944427,489.838898 502.715515,492.107391 508.525177,493.656006 
	C509.533691,480.107574 502.097504,469.736725 487.032532,471.634308 
	C479.485565,472.584900 472.903076,475.251526 467.305847,480.160797 
	C464.944763,476.179749 462.743500,472.468170 460.416962,468.545380 
	C473.136536,457.767365 488.268036,454.168030 504.275787,458.361176 
	C515.417847,461.279816 522.723083,468.662659 524.026001,482.452850 
	C524.463623,487.085327 525.371155,491.698517 525.451477,496.331177 
	C525.508728,499.634399 524.034485,502.973175 524.149902,506.264313 
	C524.332336,511.468079 525.263611,516.646606 525.912598,521.831421 
	C525.971558,522.301819 526.152100,522.947449 526.495422,523.163391 
	C532.588379,526.996155 528.782166,532.997498 530.270508,538.860474 
	C524.858643,538.860474 519.927307,538.860474 514.662964,538.630493 
M484.181610,525.821899 
	C491.858917,526.928772 498.475922,525.291260 504.035187,519.361572 
	C509.325317,513.718994 508.302277,503.794098 501.489746,502.636414 
	C495.075775,501.546448 488.326843,501.485199 481.835236,502.111389 
	C477.176392,502.560822 473.957977,506.012085 472.870392,511.023834 
	C471.540955,517.150146 474.573303,523.418945 484.181610,525.821899 
z"/>
<path fill="#EDEEEF" opacity="1.000000" stroke="none" 
	d="
M743.031128,469.007812 
	C744.692993,471.295532 746.929504,472.964813 747.807434,475.174011 
	C751.576721,484.658630 755.678894,494.191559 752.797119,505.084961 
	C733.613098,505.084961 714.830688,505.084961 695.711182,505.084961 
	C696.275024,513.197327 700.339661,518.715210 706.633545,522.865601 
	C712.793945,526.927979 719.574890,526.417603 726.188843,524.817688 
	C728.796875,524.186829 731.388428,522.174255 733.278198,520.133972 
	C738.908142,514.055237 738.515015,514.714050 743.802612,519.060181 
	C745.729126,520.643677 747.735046,522.130798 749.709473,523.656250 
	C736.505310,540.271790 724.367249,542.998779 704.123352,538.424316 
	C696.386780,536.676086 688.999939,531.150085 684.521912,523.229553 
	C680.102783,515.413452 676.397461,507.321899 677.160583,498.281250 
	C678.100952,487.140900 681.456970,476.488464 689.483765,468.296509 
	C699.457214,458.117981 711.863525,454.683350 725.734314,458.032898 
	C732.474670,459.660583 738.572021,462.926178 743.031128,469.007812 
M706.145081,474.413025 
	C700.074585,478.491760 696.772522,484.189636 695.835815,491.220001 
	C709.660583,491.220001 723.143066,491.220001 736.909180,491.220001 
	C734.196655,484.661407 733.255859,477.925842 726.364990,474.705017 
	C719.850708,471.660248 713.510010,470.428528 706.145081,474.413025 
z"/>
<path fill="#4090f0" opacity="1.000000" stroke="none" 
	d="
M787.000000,474.000000 
	C787.000000,488.148407 786.990173,501.796844 787.004272,515.445251 
	C787.011047,521.995850 787.031555,521.998535 793.709106,521.999390 
	C807.979675,522.001221 822.250244,522.000000 836.758179,522.000000 
	C836.758179,527.702026 836.758179,532.971863 836.758179,538.622314 
	C814.799438,538.622314 792.761658,538.622314 770.361023,538.622314 
	C770.361023,502.776367 770.361023,466.752594 770.361023,430.363953 
	C775.569336,430.363953 780.957520,430.363953 787.000000,430.363953 
	C787.000000,444.678986 787.000000,459.089478 787.000000,474.000000 
z"/>
<path fill="#4090f0" opacity="1.000000" stroke="none" 
	d="
M852.000000,494.000000 
	C852.000000,482.024353 852.000000,470.548706 852.000000,459.426392 
	C857.530457,459.426392 862.897156,459.426392 868.631958,459.426392 
	C868.631958,486.213013 868.631958,512.244873 868.631958,538.639099 
	C863.424866,538.639099 858.035828,538.639099 852.000000,538.639099 
	C852.000000,523.984375 852.000000,509.242188 852.000000,494.000000 
z"/>
<path fill="#4090f0" opacity="1.000000" stroke="none" 
	d="
M867.006592,444.986694 
	C863.011719,448.252838 858.640930,447.774963 854.449280,446.666260 
	C850.200745,445.542572 847.911499,437.392975 850.188416,432.655579 
	C852.799500,427.222717 857.196838,424.926208 863.061951,427.151703 
	C865.710022,428.156555 868.725464,430.934174 869.481689,433.519562 
	C870.528931,437.100128 871.639404,441.742920 867.006592,444.986694 
z"/>




<path fill="#4090f0" opacity="1.000000" stroke="none" 
	d="
M112.089928,439.006592 
	C118.052864,440.321411 120.993568,443.844360 120.999062,449.201599 
	C121.003624,453.653107 120.999985,458.104614 120.999985,463.000580 
	C125.923149,463.000580 130.378387,462.934357 134.830795,463.018524 
	C139.661346,463.109833 143.064026,466.962891 142.987320,472.086914 
	C142.916367,476.826813 139.742401,479.968964 134.942963,479.994385 
	C130.146957,480.019806 125.350708,479.999939 119.999855,479.999939 
	C119.999855,485.303528 119.797684,490.254700 120.058159,495.181396 
	C120.305992,499.868988 118.072891,502.179962 113.764908,502.950867 
	C109.943222,503.634766 105.999977,501.253265 105.051872,497.066315 
	C104.265106,493.591827 104.261070,489.930847 104.023033,486.345032 
	C103.893845,484.398926 104.000000,482.437225 104.000000,480.000000 
	C99.611397,480.000000 95.660110,480.001190 91.708824,479.999756 
	C85.782593,479.997589 82.761391,476.735657 83.001785,470.601501 
	C83.226913,464.856995 85.113892,463.015656 90.797287,463.000397 
	C94.959846,462.989227 99.122444,462.985657 103.284966,462.965790 
	C103.608231,462.964264 103.931000,462.861145 105.000000,462.676239 
	C105.000000,458.076538 105.333900,453.295258 104.911911,448.581665 
	C104.430077,443.199768 107.075768,440.534363 112.089928,439.006592 
M108.705940,464.003235 
	C107.809746,464.649445 106.183517,465.248657 106.138405,465.949615 
	C105.886574,469.862457 106.017357,473.799927 106.017357,477.627686 
	C111.042130,477.627686 115.428986,477.627686 119.756386,477.627686 
	C119.756386,472.983521 119.756386,468.713898 119.756386,464.000458 
	C116.239479,464.000458 112.951439,464.000458 108.705940,464.003235 
z"/>
<path fill="#4090f0" opacity="1.000000" stroke="none" 
	d="
M211.000824,471.142212 
	C210.946716,467.345612 212.705032,465.937103 215.951553,465.988586 
	C219.421692,466.043640 222.893372,466.001038 227.000107,466.001038 
	C227.000107,461.792877 227.228058,457.845367 226.940262,453.935822 
	C226.608429,449.428192 229.053635,448.077362 232.859436,448.021240 
	C236.929977,447.961151 239.428192,449.425964 239.059204,454.153564 
	C238.765305,457.918945 238.999924,461.725555 238.999924,466.000732 
	C242.536133,466.000732 245.653519,466.068268 248.766693,465.982697 
	C252.221817,465.887726 253.883926,467.305420 254.066513,470.922241 
	C254.255859,474.672882 253.615372,477.609772 249.274139,477.935944 
	C246.132858,478.171967 242.959595,477.981995 238.999695,477.981995 
	C238.999695,482.191223 238.853439,486.271149 239.039230,490.335876 
	C239.240723,494.743835 237.139206,496.082520 233.006241,496.081421 
	C228.883743,496.080322 226.755524,494.766022 226.961639,490.348389 
	C227.145721,486.402527 227.000320,482.441284 227.000320,477.999908 
	C223.463074,477.999908 220.332764,477.809174 217.234695,478.043854 
	C212.388992,478.410889 210.493240,476.225006 211.000824,471.142212 
z"/>

</svg>